<?xml version="1.0" encoding="UTF-8" standalone="no"?>
<svg
   xmlns:dc="http://purl.org/dc/elements/1.1/"
   xmlns:cc="http://creativecommons.org/ns#"
   xmlns:rdf="http://www.w3.org/1999/02/22-rdf-syntax-ns#"
   xmlns:svg="http://www.w3.org/2000/svg"
   xmlns="http://www.w3.org/2000/svg"
   xmlns:sodipodi="http://sodipodi.sourceforge.net/DTD/sodipodi-0.dtd"
   xmlns:inkscape="http://www.inkscape.org/namespaces/inkscape"
   width="95.96917mm"
   height="161.70552mm"
   viewBox="0 0 95.96917 161.70552"
   version="1.1"
   id="svg8"
   inkscape:version="1.0 (b51213c273, 2020-08-10)"
   sodipodi:docname="drawing.svg">
  <defs
     id="defs2" />
  <sodipodi:namedview
     id="base"
     pagecolor="#ffffff"
     bordercolor="#666666"
     borderopacity="1.0"
     inkscape:pageopacity="0.0"
     inkscape:pageshadow="2"
     inkscape:zoom="0.35"
     inkscape:cx="543.22448"
     inkscape:cy="353.34713"
     inkscape:document-units="mm"
     inkscape:current-layer="layer1"
     inkscape:document-rotation="0"
     showgrid="false"
     inkscape:window-width="1294"
     inkscape:window-height="704"
     inkscape:window-x="72"
     inkscape:window-y="27"
     inkscape:window-maximized="1" />
  <metadata
     id="metadata5">
    <rdf:RDF>
      <cc:Work
         rdf:about="">
        <dc:format>image/svg+xml</dc:format>
        <dc:type
           rdf:resource="http://purl.org/dc/dcmitype/StillImage" />
        <dc:title></dc:title>
      </cc:Work>
    </rdf:RDF>
  </metadata>
  <g
     inkscape:label="Layer 1"
     inkscape:groupmode="layer"
     id="layer1"
     transform="translate(198.15672,-54.676904)">
    <g
       id="g112"
       transform="translate(-237.45192,-4.8119991)">
      <path
         style="fill:#d7d9ea;stroke-width:0.264583"
         d="m 44.869301,220.99536 c -3.35893,-0.79684 -5.575398,-3.526 -5.569278,-6.8575 0.0074,-4.00162 2.85446,-6.72935 7.381201,-7.07171 l 1.962499,-0.14842 v -27.34618 c 0,-26.51071 -0.01508,-27.34619 -0.493485,-27.34619 -0.763701,0 -1.858148,-1.00242 -2.09581,-1.91959 -0.336489,-1.29855 -0.06454,-2.2805 0.887704,-3.20531 l 0.878557,-0.85324 -1.071624,-1.00919 c -2.891075,-2.72265 -2.886662,-7.07029 0.01,-9.85366 l 1.092623,-1.04989 -0.787789,-0.58244 c -0.851315,-0.62941 -1.289672,-1.81855 -1.113316,-3.02013 0.132117,-0.9002 1.468543,-2.31905 2.184323,-2.31905 0.498747,0 0.508815,-0.541 0.508815,-27.34618 V 73.720491 l -1.947574,-0.147296 c -3.472477,-0.262623 -5.630125,-1.622719 -6.813101,-4.294709 -1.598107,-3.609644 0.181732,-7.858308 3.891392,-9.289158 1.253146,-0.483354 2.741602,-0.500425 43.630742,-0.500425 h 42.33334 l 1.20406,0.557122 c 3.69075,1.707714 5.29212,5.681861 3.72015,9.232461 -1.18724,2.681626 -3.41032,4.081396 -6.84244,4.308361 l -1.91823,0.126852 v 27.349581 c 0,26.80853 0.01,27.34958 0.50882,27.34958 0.71577,0 2.05221,1.41885 2.18432,2.31905 0.17634,1.20158 -0.26199,2.39072 -1.11332,3.02013 l -0.78779,0.58244 1.09262,1.04989 c 2.89666,2.78337 2.90108,7.13101 0.0101,9.85366 l -1.07161,1.00919 0.87855,0.85324 c 0.95226,0.92481 1.2242,1.90676 0.8877,3.20531 -0.23765,0.91717 -1.3321,1.91959 -2.09582,1.91959 -0.47839,0 -0.49347,0.83546 -0.49347,27.34555 v 27.34555 l 2.00954,0.16987 c 3.40643,0.28795 5.63422,1.6803 6.72862,4.20533 1.55606,3.59025 0.003,7.6379 -3.54748,9.24476 l -1.35427,0.6129 -41.936465,0.0412 c -23.861703,0.0234 -42.365867,-0.0607 -42.932756,-0.19515 z m 13.398368,-33.42881 c 0.198181,-20.86446 0.192053,-20.77404 1.61989,-23.90061 1.249045,-2.73507 3.756145,-5.45789 6.415064,-6.96704 l 1.122442,-0.63708 0.0021,-1.91823 c 0.0019,-1.69634 -0.05505,-1.91823 -0.491448,-1.91823 -0.763701,0 -1.858147,-1.00242 -2.095809,-1.91959 -0.33649,-1.29855 -0.06454,-2.2805 0.887703,-3.20531 l 0.878557,-0.85324 -1.071623,-1.00919 c -2.891076,-2.72265 -2.886663,-7.07029 0.01,-9.85366 l 1.092623,-1.04989 -0.787789,-0.58244 c -0.851315,-0.62941 -1.289671,-1.81855 -1.113316,-3.02013 0.132038,-0.9002 1.468464,-2.31905 2.184244,-2.31905 0.476586,0 0.508815,-0.22342 0.508815,-3.52716 v -3.52717 l -0.696868,-0.37295 c -1.238954,-0.66307 -3.548467,-3.49779 -4.619157,-5.66959 -1.608134,-3.26197 -1.817846,-4.74967 -1.823132,-12.93335 l -0.0046,-7.112506 0.885401,-0.835041 c 0.486971,-0.459272 2.094315,-1.418368 3.571875,-2.131322 L 67.42914,91.007487 V 82.325799 73.644111 H 60.682265 53.93539 v 27.384379 c 0,26.84286 0.01005,27.38437 0.508814,27.38437 0.71578,0 2.052207,1.41885 2.184326,2.31905 0.176356,1.20158 -0.262001,2.39072 -1.113316,3.02013 l -0.787789,0.58244 1.092623,1.04989 c 2.896661,2.78337 2.901075,7.13101 0.01,9.85366 l -1.071624,1.00919 0.878557,0.85324 c 0.952246,0.92481 1.224193,1.90676 0.887704,3.20531 -0.237665,0.91717 -1.332111,1.91959 -2.095812,1.91959 -0.478412,0 -0.493485,0.8364 -0.493485,27.38438 v 27.38437 h 2.073873 2.07387 z m 62.342721,-7.95681 c 0,-26.54798 -0.0151,-27.38438 -0.49347,-27.38438 -0.76372,0 -1.85817,-1.00242 -2.09582,-1.91959 -0.3365,-1.29855 -0.0646,-2.2805 0.8877,-3.20531 l 0.87855,-0.85324 -1.07161,-1.00919 c -2.89108,-2.72265 -2.88666,-7.07029 0.0101,-9.85366 l 1.09262,-1.04989 -0.78779,-0.58244 c -0.85133,-0.62941 -1.28966,-1.81855 -1.11332,-3.02013 0.13211,-0.9002 1.46855,-2.31905 2.18432,-2.31905 0.49877,0 0.50882,-0.54151 0.50882,-27.38437 V 73.644111 H 96.665651 72.720859 v 8.031417 8.031419 l 1.811983,0.151908 c 2.484745,0.208314 5.370471,1.379452 9.261126,3.75853 1.787338,1.092928 3.348422,1.987143 3.469077,1.987143 0.120653,0 1.384117,-0.732057 2.807697,-1.626796 4.703625,-2.956285 7.92883,-4.198266 10.879258,-4.189444 3.93641,0.01177 9.60464,2.088139 12.39967,4.542215 l 0.91077,0.799674 -0.004,7.447073 c -0.004,8.31418 -0.15094,9.40627 -1.71783,12.7976 -0.50824,1.10002 -0.92408,2.16186 -0.92408,2.35965 0,0.19778 -0.14486,0.32985 -0.32195,0.29347 -0.17706,-0.0364 -0.53382,0.35057 -0.79282,0.85989 -0.25898,0.50932 -0.59037,0.94093 -0.73639,0.95912 -0.61031,0.076 -0.64426,0.11878 -0.27813,0.35039 0.21132,0.13369 0.50898,0.16498 0.66146,0.0695 0.94842,-0.59374 0.88738,-0.12203 -0.10036,0.77545 -0.84865,0.77109 -1.34064,1.03191 -1.78595,0.94679 -0.39812,-0.0761 -0.61461,0.009 -0.61461,0.24045 0,0.19687 -0.22411,0.4979 -0.49803,0.66896 -0.40864,0.25521 -0.45612,0.4571 -0.26458,1.12498 0.12839,0.44767 0.23344,1.61841 0.23344,2.60164 0,1.58746 0.057,1.78768 0.50882,1.78768 0.71578,0 2.05221,1.41885 2.18432,2.31905 0.17635,1.20158 -0.26199,2.39072 -1.11331,3.02013 l -0.78779,0.58244 1.09261,1.04989 c 2.89666,2.78337 2.90108,7.13101 0.0101,9.85366 l -1.07162,1.00919 0.87855,0.85324 c 0.95226,0.92481 1.2242,1.90676 0.88771,3.20531 -0.23765,0.91717 -1.33211,1.91959 -2.09581,1.91959 -0.41183,0 -0.49408,0.20797 -0.4971,1.25677 -0.002,0.69123 -0.071,1.50793 -0.15342,1.8149 -0.12455,0.46401 0.11031,0.70488 1.39267,1.42833 1.83747,1.03662 4.73336,3.86546 5.75823,5.62491 0.40409,0.69375 1.04798,2.1225 1.43086,3.175 l 0.69615,1.91363 0.0823,19.77761 0.0823,19.7776 h 2.10416 2.10417 V 179.6097 Z m -9.27074,-60.50719 c 0.29674,-0.31848 0.53949,-0.67566 0.53949,-0.79375 0,-0.11808 0.10853,-0.21469 0.24117,-0.21469 0.13266,0 0.21672,0.16658 0.18685,0.37018 -0.0804,0.54742 -0.7034,1.21732 -1.13218,1.21732 -0.27316,0 -0.2285,-0.15702 0.16467,-0.57906 z m -32.910567,28.96066 c 1.768854,-2.07032 2.991745,-4.00797 3.442783,-5.45502 0.59028,-1.89376 0.772895,-4.91534 0.389167,-6.43926 -0.222527,-0.88374 -0.232735,-1.28947 -0.03411,-1.35568 0.486704,-0.16223 0.309779,-0.57956 -0.245703,-0.57956 -0.291041,0 -0.529166,-0.10932 -0.529166,-0.24294 0,-0.13362 -0.07227,-0.43127 -0.1606,-0.66146 -0.08833,-0.23018 -0.0288,-0.41851 0.132292,-0.41851 0.161091,0 0.292891,0.19317 0.292891,0.42927 0,0.35158 0.07183,0.36966 0.396875,0.0999 0.218281,-0.18115 0.400494,-0.52315 0.404921,-0.76 0.0071,-0.37763 0.04124,-0.37364 0.27773,0.0324 0.466625,0.80115 0.806345,0.50208 0.375682,-0.33073 -0.450659,-0.87148 -1.181595,-1.02956 -1.817976,-0.39318 -0.3577,0.3577 -0.395115,0.30058 -0.349628,-0.53372 0.04311,-0.79075 0.09917,-0.86836 0.364897,-0.50522 0.172681,0.23599 0.470337,0.37436 0.661459,0.30749 0.825039,-0.28863 -3.921205,-4.1138 -7.788439,-6.27698 l -1.521355,-0.85099 v 2.14193 c 0,1.93697 0.04869,2.14192 0.508815,2.14192 0.71578,0 2.052207,1.41885 2.184326,2.31905 0.176356,1.20158 -0.262001,2.39072 -1.113316,3.02013 l -0.787789,0.58244 1.092623,1.04989 c 2.896661,2.78337 2.901075,7.13101 0.01,9.85366 l -1.071624,1.00919 0.9114,0.88514 c 0.894958,0.86917 1.033679,1.33453 0.916231,3.0736 l -0.05124,0.75872 1.015391,-0.81983 c 0.558464,-0.45091 1.500524,-1.38764 2.09346,-2.08164 z m 20.741961,2.11163 c -0.112699,-1.70919 0.02882,-2.17747 0.919496,-3.04248 l 0.9114,-0.88514 -1.071624,-1.00919 c -2.891076,-2.72265 -2.886662,-7.07029 0.01,-9.85366 l 1.092624,-1.04989 -0.78779,-0.58244 c -0.851315,-0.62941 -1.289671,-1.81855 -1.113316,-3.02013 0.132117,-0.9002 1.468546,-2.31905 2.184326,-2.31905 0.45282,0 0.50881,-0.2007 0.50881,-1.82377 0,-1.40419 -0.0945,-1.86003 -0.41061,-1.98135 -0.22584,-0.0867 -0.34296,-0.0481 -0.26027,0.0857 0.0827,0.1338 0.0293,0.31806 -0.11855,0.40946 -0.1479,0.0914 -0.2689,0.0331 -0.2689,-0.12962 0,-0.1627 -0.12484,-0.21866 -0.27743,-0.12435 -0.19317,0.11938 -0.19336,0.27276 -5.3e-4,0.505 0.33891,0.40837 -0.2534,1.14674 -1.505298,1.87648 -0.67065,0.39093 -0.926989,0.43004 -1.177396,0.17963 -0.450617,-0.45062 -1.035188,-0.38912 -1.7859,0.18788 l -0.6456,0.4962 0.708454,-0.13543 c 1.261398,-0.24113 1.172176,0.57136 -0.22256,2.02669 -2.122863,2.21509 -3.051915,3.93808 -3.585286,6.64915 -0.642909,3.26784 0.221572,6.66921 2.510136,9.87635 1.026517,1.43853 3.919972,4.39156 4.302964,4.39156 0.072,0 0.10932,-0.32742 0.08293,-0.7276 z m 4.092006,-26.02304 c -0.24496,-0.39634 -0.90488,-0.26964 -0.74642,0.14331 0.0802,0.2091 0.31394,0.31568 0.51935,0.23686 0.2054,-0.0788 0.30758,-0.2499 0.22707,-0.38017 z m 1.14712,-0.45183 c 0.0576,-0.17281 -0.0838,-0.31419 -0.31419,-0.31419 -0.23041,0 -0.41892,0.18851 -0.41892,0.41892 0,0.46724 0.56958,0.38587 0.73311,-0.10473 z"
         id="path126" />
      <path
         style="fill:#b0b1d3;stroke-width:0.264583"
         d="m 44.379243,220.65175 c -2.573446,-0.91962 -4.167836,-2.70185 -4.751901,-5.31173 -0.255104,-1.13992 -0.235548,-1.6251 0.113953,-2.82734 0.956353,-3.28974 3.256923,-4.97985 7.079801,-5.20115 l 2.08721,-0.12083 V 179.75895 152.3272 l -1.031692,-0.45518 c -1.225921,-0.54088 -1.987767,-1.87412 -1.719943,-3.00993 0.198099,-0.84012 1.354857,-2.19298 1.875094,-2.19298 0.547151,0 0.438603,-0.16488 -1.085056,-1.6482 -1.145043,-1.11473 -1.521693,-1.70421 -1.877343,-2.93817 -0.7254,-2.51684 -0.03176,-4.79327 2.023634,-6.64124 l 1.300596,-1.16935 -0.796702,-0.47062 c -1.013585,-0.59874 -1.647762,-1.90373 -1.437074,-2.95717 0.179379,-0.8969 1.282787,-2.06582 2.087028,-2.21095 0.524655,-0.0947 0.529741,-0.33032 0.596532,-27.64144 l 0.06737,-27.545955 -2.207459,-0.115864 c -1.834221,-0.09627 -2.449544,-0.251047 -3.63924,-0.9154 -1.725166,-0.963369 -2.981439,-2.677893 -3.429641,-4.680667 -0.630547,-2.81758 0.913911,-5.889329 3.63224,-7.224109 l 1.540618,-0.756489 41.923807,-0.06937 c 45.648245,-0.07553 43.442815,-0.142783 45.515795,1.387895 1.27289,0.939882 2.29817,2.55773 2.66787,4.20972 0.25935,1.158861 0.24085,1.636051 -0.11025,2.843813 -0.95784,3.294877 -3.25858,5.010226 -6.98214,5.205663 l -2.18731,0.114806 0.0674,27.545957 c 0.0668,27.31112 0.0719,27.54677 0.59653,27.64144 0.80423,0.14513 1.90765,1.31405 2.08704,2.21095 0.2092,1.04606 -0.42157,2.35728 -1.41677,2.94517 l -0.77639,0.45862 1.41936,1.38184 c 2.95613,2.87801 2.89335,6.82205 -0.15217,9.56023 -1.35387,1.21726 -1.52122,1.47889 -0.94599,1.47889 0.52025,0 1.67701,1.35286 1.8751,2.19298 0.26782,1.13581 -0.49403,2.46905 -1.71995,3.00993 l -1.03169,0.45518 v 27.43175 27.43175 l 2.05052,0.12142 c 3.3699,0.19954 5.60134,1.57503 6.77614,4.17694 1.64465,3.64248 -0.56983,8.1503 -4.54641,9.25478 -1.57366,0.43708 -84.30692,0.348 -85.538473,-0.0921 z m 23.182188,-14.45139 v -0.92604 l -3.158524,-0.075 c -1.943492,-0.0461 -3.304257,-0.19592 -3.537358,-0.38938 -0.301442,-0.25017 -0.342913,-0.77535 -0.203004,-2.57086 0.380476,-4.88284 1.804064,-8.38669 5.049922,-12.42933 l 1.981256,-2.4676 V 169.83469 152.3272 l -1.031692,-0.45518 c -1.225921,-0.54088 -1.987767,-1.87412 -1.719943,-3.00993 0.198099,-0.84012 1.354857,-2.19298 1.875094,-2.19298 0.547151,0 0.438603,-0.16488 -1.085056,-1.6482 -1.145043,-1.11473 -1.521693,-1.70421 -1.877343,-2.93817 -0.7254,-2.51684 -0.03176,-4.79327 2.023634,-6.64124 l 1.300596,-1.16935 -0.796703,-0.47062 c -1.013584,-0.59874 -1.647761,-1.90373 -1.437073,-2.95717 0.179414,-0.89708 1.28302,-2.06604 2.087028,-2.21062 0.494384,-0.0889 0.533998,-0.33305 0.602678,-3.71429 l 0.07351,-3.61912 -2.084488,-2.06613 c -1.565476,-1.55169 -2.323917,-2.56022 -3.046095,-4.05051 -1.637397,-3.37893 -1.763313,-4.26963 -1.763313,-12.47329 v -7.335028 l 1.124479,-0.886457 c 0.618464,-0.487553 2.017448,-1.295316 3.108855,-1.795029 1.091406,-0.499713 2.133203,-1.016325 2.315104,-1.148027 0.253362,-0.183444 0.330729,-2.336244 0.330729,-9.202894 V 73.379528 H 60.68104 53.668356 l 0.06737,27.579202 c 0.0668,27.34436 0.07188,27.58001 0.596538,27.67468 0.80424,0.14513 1.907648,1.31405 2.087028,2.21095 0.210687,1.05344 -0.42349,2.35843 -1.437074,2.95717 l -0.796703,0.47062 1.300596,1.16935 c 2.055392,1.84797 2.749035,4.1244 2.023634,6.64124 -0.35565,1.23396 -0.7323,1.82344 -1.877343,2.93817 -1.523658,1.48332 -1.632206,1.6482 -1.085056,1.6482 0.520237,0 1.676995,1.35286 1.875094,2.19298 0.267825,1.13581 -0.494022,2.46905 -1.719942,3.00993 l -1.031693,0.45518 v 27.47014 27.47014 l 6.945313,-0.0705 6.945312,-0.0705 z m 53.313389,-26.47356 1.5e-4,-27.3996 -1.03169,-0.45518 c -1.22592,-0.54088 -1.98776,-1.87412 -1.71995,-3.00993 0.1981,-0.84012 1.35486,-2.19298 1.87511,-2.19298 0.54715,0 0.4386,-0.16488 -1.08506,-1.6482 -1.14504,-1.11473 -1.5217,-1.70421 -1.87735,-2.93817 -0.72541,-2.51684 -0.0318,-4.79327 2.02364,-6.64124 l 1.30058,-1.16935 -0.79668,-0.47062 c -1.0136,-0.59874 -1.64778,-1.90373 -1.43709,-2.95717 0.17939,-0.8969 1.28281,-2.06582 2.08704,-2.21095 0.52466,-0.0947 0.52974,-0.33032 0.59653,-27.67468 l 0.0674,-27.579202 h -24.210607 -24.2106 v 8.466666 8.466667 l 1.389063,0.0065 c 2.855965,0.01331 5.579451,1.084194 10.311117,4.054412 1.542018,0.967973 2.940116,1.759953 3.106888,1.759953 0.166769,0 0.981295,-0.458071 1.810054,-1.017937 2.632107,-1.778109 5.835865,-3.518109 7.668969,-4.165111 2.107669,-0.74391 5.264876,-0.842298 8.055016,-0.251015 2.11155,0.447476 5.80612,2.124792 7.63122,3.464541 l 1.30267,0.956257 v 7.457269 c 0,6.71902 -0.054,7.65318 -0.54615,9.43632 -0.74456,2.69803 -2.06428,4.95696 -4.06453,6.95722 -1.44695,1.44695 -2.25715,1.96183 -5.86604,3.72792 -2.30296,1.127 -5.20384,2.71086 -6.446389,3.51968 -2.862649,1.86339 -5.521439,4.54857 -6.520013,6.58472 l -0.76625,1.56242 v 17.85937 17.85938 l 0.585634,1.09496 c 1.560367,2.91744 5.751518,7.16507 13.172698,13.35023 4.6314,3.86002 6.98871,6.57569 8.76425,10.09668 1.1717,2.32356 1.72016,4.75537 1.7749,7.86958 l 0.0442,2.51355 -20.637505,0.13229 -20.6375,0.13229 -0.08707,0.61455 c -0.196348,1.38586 -1.575483,1.31348 24.276669,1.27417 l 24.096566,-0.0366 z m -16.73805,-25.16417 c -1.12465,-0.67938 -1.84482,-1.3023 -1.93887,-1.67704 -0.096,-0.38246 -0.5236,-0.74308 -1.19283,-1.00596 -1.208437,-0.47469 -1.948503,-1.82222 -1.664037,-3.02993 0.195467,-0.82987 1.355027,-2.18059 1.871987,-2.18059 0.54715,0 0.4386,-0.16488 -1.08506,-1.6482 -1.145043,-1.11473 -1.521693,-1.70421 -1.877343,-2.93817 -0.725401,-2.51684 -0.03176,-4.79327 2.023633,-6.64124 l 1.3006,-1.16935 -0.79671,-0.47062 c -1.01358,-0.59874 -1.647757,-1.90373 -1.43707,-2.95717 0.179473,-0.89736 1.2834,-2.06638 2.08703,-2.21009 0.42604,-0.0762 0.55608,-0.36164 0.66727,-1.4647 0.076,-0.75354 0.19502,-1.4228 0.26459,-1.48724 0.3467,-0.32119 3.4709,-1.76739 3.81805,-1.76739 0.48411,0 0.64976,0.65212 0.73866,2.90776 0.0584,1.48099 0.14045,1.73014 0.59685,1.81167 0.80356,0.14355 1.90754,1.31257 2.08703,2.20999 0.21069,1.05344 -0.42349,2.35843 -1.43708,2.95717 l -0.7967,0.47062 1.30059,1.16935 c 2.05539,1.84797 2.74905,4.1244 2.02364,6.64124 -0.35565,1.23396 -0.73231,1.82344 -1.87735,2.93817 -1.52365,1.48332 -1.6322,1.6482 -1.08505,1.6482 0.52023,0 1.677,1.35286 1.8751,2.19298 0.26781,1.13581 -0.49403,2.46905 -1.71995,3.00993 -0.98945,0.43654 -1.03169,0.50638 -1.03169,1.70554 0,1.44366 -0.19466,2.09187 -0.62362,2.07666 -0.16633,-0.006 -1.10758,-0.49712 -2.09167,-1.09159 z m -26.438127,24.38706 c 3.034721,-2.73497 5.674304,-5.77809 6.739655,-7.76999 l 0.585634,-1.09496 v -17.73265 -17.73265 l -0.869651,-1.76651 c -1.167392,-2.37131 -4.092187,-5.07985 -8.022765,-7.42958 -1.631201,-0.97514 -3.12992,-1.77299 -3.330485,-1.77299 -0.289007,0 -0.348882,0.50715 -0.288592,2.44437 0.06863,2.20511 0.127873,2.45366 0.605242,2.53927 0.803821,0.14415 1.907585,1.31314 2.087029,2.21036 0.209214,1.04606 -0.421545,2.35728 -1.416762,2.94517 l -0.776391,0.45862 1.419347,1.38184 c 2.956139,2.87801 2.893372,6.82205 -0.152146,9.56023 -1.353884,1.21726 -1.521241,1.47889 -0.945994,1.47889 0.516953,0 1.676516,1.35072 1.871983,2.18059 0.283429,1.2033 -0.45398,2.5464 -1.68106,3.06183 l -1.062082,0.44612 -0.0027,15.23559 c -0.0016,8.37958 0.0735,15.31178 0.166616,15.4049 0.214842,0.21484 1.330304,-0.67532 5.073113,-4.04845 z"
         id="path124" />
      <path
         style="fill:#e0618b;stroke-width:0.264583"
         d="m 44.15046,220.23656 c -2.762866,-0.95762 -4.855721,-4.23404 -4.374631,-6.84861 0.687882,-3.73843 3.4887,-5.86467 7.725291,-5.86467 h 1.671769 v -27.76023 -27.76023 l -0.760523,-0.16704 c -0.848027,-0.18625 -1.733902,-1.03103 -1.998858,-1.9061 -0.295178,-0.9749 0.503806,-2.43578 1.577549,-2.88442 0.524631,-0.2192 0.915871,-0.49907 0.869418,-0.62192 -0.04645,-0.12285 -0.613741,-0.62493 -1.260639,-1.11572 -3.351557,-2.54279 -3.351557,-7.43423 0,-9.97702 1.42471,-1.08091 1.513096,-1.2633 0.727723,-1.50174 -0.848305,-0.25754 -1.725631,-1.11292 -1.91489,-1.86699 -0.280242,-1.11657 0.503655,-2.47829 1.696376,-2.9468 l 1.063844,-0.41789 V 100.85606 73.114944 H 47.50112 c -2.565469,0 -4.328996,-0.635682 -5.776796,-2.082305 -2.711226,-2.709021 -2.603823,-6.778471 0.24666,-9.345991 2.129901,-1.918472 -0.813432,-1.80087 45.072322,-1.80087 28.793864,0 41.619974,0.08708 42.561274,0.288946 2.47838,0.531521 4.4735,2.550636 5.0454,5.106096 0.60192,2.689696 -0.93893,5.756132 -3.56579,7.096257 -0.74589,0.380524 -1.77689,0.586936 -3.39149,0.678995 l -2.31981,0.13227 v 27.704418 27.70442 l 1.06384,0.41789 c 1.19271,0.46851 1.97662,1.83023 1.69637,2.9468 -0.18925,0.75407 -1.06659,1.60945 -1.91487,1.86699 -0.78538,0.23844 -0.69699,0.42083 0.72771,1.50174 0.67123,0.50925 1.46447,1.45254 1.84767,2.1972 1.37507,2.67198 0.60365,5.92003 -1.84767,7.77982 -0.6469,0.49079 -1.21417,0.99287 -1.26063,1.11572 -0.0465,0.12285 0.34478,0.40272 0.86942,0.62192 1.07373,0.44864 1.87272,1.90952 1.57755,2.88442 -0.26495,0.87507 -1.15083,1.71985 -1.99887,1.9061 l -0.76052,0.16704 v 27.76023 27.76023 h 1.44219 c 4.26778,0 7.05742,1.92091 7.8349,5.39504 0.60073,2.68441 -0.91149,5.70241 -3.5705,7.12568 l -1.07638,0.57615 -42.201043,0.0596 c -40.86073,0.0577 -42.247112,0.0436 -43.651597,-0.44318 z m 23.756197,-14.10234 0.08064,-1.25678 h -3.462382 c -2.946765,0 -3.486865,-0.0638 -3.626768,-0.42837 -0.290809,-0.75784 0.401936,-5.74196 1.074295,-7.72928 0.858663,-2.53799 2.385486,-5.06264 4.3717,-7.22874 l 1.614162,-1.76036 v -17.86393 -17.86394 l -0.760523,-0.16704 c -0.848027,-0.18625 -1.733902,-1.03103 -1.998859,-1.9061 -0.295177,-0.9749 0.503807,-2.43578 1.577549,-2.88442 0.524632,-0.2192 0.915872,-0.49907 0.869419,-0.62192 -0.04645,-0.12285 -0.613741,-0.62493 -1.260639,-1.11572 -3.351557,-2.54279 -3.351557,-7.43423 0,-9.97702 1.424709,-1.08091 1.513096,-1.2633 0.727723,-1.50174 -0.848305,-0.25754 -1.725631,-1.11292 -1.91489,-1.86699 -0.280242,-1.11657 0.503655,-2.47829 1.696376,-2.9468 l 1.063844,-0.41789 v -3.91079 c 0,-3.62257 -0.0374,-3.92265 -0.507428,-4.07184 -0.981361,-0.31147 -3.917326,-3.75381 -4.903526,-5.74925 -1.423302,-2.87985 -1.712719,-5.01661 -1.723564,-12.72497 l -0.0092,-6.56107 0.673971,-0.624615 c 0.370684,-0.343538 1.055293,-0.795809 1.521354,-1.005044 0.466061,-0.209235 1.771264,-0.785675 2.90045,-1.28098 l 2.053066,-0.900552 -0.06869,-9.260416 -0.06869,-9.260417 -7.209896,-0.0704 -7.209896,-0.0704 v 27.745374 27.74537 l 1.063844,0.41789 c 1.192721,0.46851 1.976618,1.83023 1.696377,2.9468 -0.18926,0.75407 -1.066586,1.60945 -1.914891,1.86698 -0.785373,0.23844 -0.696986,0.42083 0.727724,1.50175 3.351556,2.54279 3.351556,7.43423 0,9.97702 -0.646899,0.49079 -1.214187,0.99287 -1.260639,1.11572 -0.04645,0.12285 0.344786,0.40272 0.869418,0.62192 1.073742,0.44864 1.872726,1.90951 1.577549,2.88442 -0.264957,0.87507 -1.150832,1.71985 -1.998858,1.9061 l -0.760524,0.16704 v 27.76448 27.76447 l 7.209896,-0.0704 7.209896,-0.0704 z m 53.232903,-26.37117 v -27.76023 l -0.76052,-0.16704 c -0.84804,-0.18625 -1.73392,-1.03103 -1.99888,-1.9061 -0.29516,-0.9749 0.50382,-2.43578 1.57756,-2.88442 0.52464,-0.2192 0.91588,-0.49907 0.86942,-0.62192 -0.0465,-0.12285 -0.61373,-0.62493 -1.26064,-1.11572 -3.35155,-2.54279 -3.35155,-7.43423 0,-9.97702 1.42471,-1.08091 1.5131,-1.2633 0.72771,-1.50174 -0.84828,-0.25754 -1.72561,-1.11292 -1.91487,-1.86699 -0.28024,-1.11657 0.50367,-2.47829 1.69638,-2.9468 l 1.06384,-0.41789 v -27.7425 -27.74249 l -24.407816,0.06752 -24.407813,0.06752 -0.06952,8.598958 -0.06952,8.598959 1.789313,0.0352 c 2.955142,0.05815 5.418,1.090525 11.229491,4.707173 l 2.031847,1.264473 2.848184,-1.787898 c 4.727101,-2.967352 8.154548,-4.355637 10.733934,-4.347768 3.57408,0.0109 9.62437,2.214491 11.96387,4.357388 l 1.00899,0.924192 -0.12031,7.477783 c -0.11597,7.20568 -0.14581,7.55555 -0.8205,9.61497 -0.85053,2.5961 -2.8026,5.48617 -4.73996,7.01756 -0.75712,0.59847 -3.27971,2.04109 -5.60575,3.20582 -7.204765,3.6077 -10.59771,6.32493 -12.355763,9.8951 l -0.890969,1.80934 -0.0861,16.80708 c -0.05925,11.56604 0.0048,17.22369 0.205534,18.14307 0.652674,2.98994 4.527253,7.34693 12.845148,14.44443 4.77138,4.07133 6.43694,5.76216 8.12879,8.25212 2.13826,3.14697 3.06083,6.0858 3.17934,10.1278 l 0.069,2.35216 -20.703643,0.0678 -20.703646,0.0678 v 1.14492 c 0,0.6297 0.07937,1.22429 0.17639,1.3213 0.09701,0.097 11.110293,0.17639 24.473958,0.17639 h 24.297571 z m -17.13177,-25.67762 c -1.10125,-0.70116 -1.65365,-1.22486 -1.65365,-1.56774 0,-0.35194 -0.24065,-0.56772 -0.76052,-0.68191 -0.84803,-0.18625 -1.733905,-1.03103 -1.998862,-1.9061 -0.295177,-0.9749 0.503802,-2.43578 1.577552,-2.88442 0.52463,-0.2192 0.91587,-0.49907 0.86942,-0.62192 -0.0465,-0.12285 -0.61375,-0.62493 -1.26064,-1.11572 -0.67123,-0.50925 -1.464464,-1.45254 -1.847676,-2.19719 -1.375051,-2.67199 -0.603652,-5.92004 1.847676,-7.77983 1.43559,-1.08917 1.53033,-1.29572 0.69089,-1.50641 -0.76168,-0.19117 -1.62737,-1.06099 -1.877222,-1.88618 -0.313952,-1.03691 0.509942,-2.45723 1.695542,-2.92294 0.9798,-0.38488 1.06384,-0.49662 1.06384,-1.41445 0,-0.54811 0.0744,-1.19045 0.16534,-1.42743 0.18678,-0.48674 3.47219,-2.06608 3.83347,-1.84279 0.12899,0.0797 0.23452,1.07235 0.23452,2.20586 v 2.06092 l 1.06385,0.41789 c 1.19271,0.46851 1.97661,1.83023 1.69637,2.9468 -0.18926,0.75407 -1.06658,1.60945 -1.91489,1.86699 -0.78537,0.23844 -0.69698,0.42083 0.72773,1.50174 0.67122,0.50925 1.46447,1.45254 1.84766,2.1972 1.37507,2.67198 0.60365,5.92003 -1.84766,7.77982 -0.6469,0.49079 -1.21419,0.99287 -1.26064,1.11572 -0.0464,0.12285 0.34478,0.40272 0.86942,0.62192 1.07374,0.44864 1.87273,1.90952 1.57756,2.88442 -0.26363,0.87069 -1.14945,1.71954 -1.98622,1.90332 -0.70086,0.15394 -0.75281,0.25857 -0.82666,1.6648 -0.0569,1.0828 -0.1893,1.52002 -0.47568,1.57052 -0.21828,0.0385 -1.14102,-0.40382 -2.05052,-0.98289 z m -28.34632,26.95179 c 5.620097,-4.89792 8.612042,-8.37579 9.353527,-10.87264 0.34522,-1.16248 0.40581,-3.76367 0.40581,-17.42196 0,-9.75429 -0.105387,-16.61115 -0.268526,-17.47138 -0.568658,-2.99852 -2.483025,-5.51837 -6.247294,-8.2232 -2.184138,-1.56942 -5.817685,-3.65218 -6.382618,-3.65854 -0.242448,-0.003 -0.330729,0.69182 -0.330729,2.60198 v 2.6057 l 1.063844,0.41789 c 1.185596,0.46571 2.00949,1.88603 1.695538,2.92294 -0.249852,0.82519 -1.115542,1.69501 -1.877227,1.88618 -0.83943,0.21069 -0.744694,0.41724 0.690899,1.50641 3.351556,2.54279 3.351556,7.43423 0,9.97702 -0.646899,0.49079 -1.214187,0.99287 -1.260639,1.11572 -0.04645,0.12285 0.344786,0.40272 0.869418,0.62192 1.073742,0.44864 1.872726,1.90952 1.577549,2.88442 -0.264957,0.87507 -1.150832,1.71985 -1.998859,1.9061 l -0.760523,0.16704 v 15.86329 c 0,15.39646 0.01452,15.85552 0.493268,15.5993 0.271296,-0.1452 1.610749,-1.23788 2.976562,-2.42819 z m -7.43858,-74.84936 c 0,-1.14699 -0.119063,-2.15902 -0.264584,-2.24896 -0.169,-0.10444 -0.264583,0.70801 -0.264583,2.24896 0,1.54095 0.09558,2.35341 0.264583,2.24896 0.145521,-0.0899 0.264584,-1.10197 0.264584,-2.24896 z"
         id="path122" />
      <path
         style="fill:#dc5c86;stroke-width:0.264583"
         d="m 44.15046,220.23656 c -2.762866,-0.95762 -4.855721,-4.23404 -4.374631,-6.84861 0.687882,-3.73843 3.4887,-5.86467 7.725291,-5.86467 h 1.671769 v -27.76023 -27.76023 l -0.760523,-0.16704 c -0.848027,-0.18625 -1.733902,-1.03103 -1.998858,-1.9061 -0.295178,-0.9749 0.503806,-2.43578 1.577549,-2.88442 0.524631,-0.2192 0.915871,-0.49907 0.869418,-0.62192 -0.04645,-0.12285 -0.613741,-0.62493 -1.260639,-1.11572 -3.351557,-2.54279 -3.351557,-7.43423 0,-9.97702 1.42471,-1.08091 1.513096,-1.2633 0.727723,-1.50174 -0.848305,-0.25754 -1.725631,-1.11292 -1.91489,-1.86699 -0.280242,-1.11657 0.503655,-2.47829 1.696376,-2.9468 l 1.063844,-0.41789 V 100.85606 73.114944 H 47.50112 c -2.565469,0 -4.328996,-0.635682 -5.776796,-2.082305 -2.711226,-2.709021 -2.603823,-6.778471 0.24666,-9.345991 2.129901,-1.918472 -0.813432,-1.80087 45.072322,-1.80087 28.793864,0 41.619974,0.08708 42.561274,0.288946 2.47838,0.531521 4.4735,2.550636 5.0454,5.106096 0.60192,2.689696 -0.93893,5.756132 -3.56579,7.096257 -0.74589,0.380524 -1.77689,0.586936 -3.39149,0.678995 l -2.31981,0.13227 v 27.704418 27.70442 l 1.06384,0.41789 c 1.19271,0.46851 1.97662,1.83023 1.69637,2.9468 -0.18925,0.75407 -1.06659,1.60945 -1.91487,1.86699 -0.78538,0.23844 -0.69699,0.42083 0.72771,1.50174 0.67123,0.50925 1.46447,1.45254 1.84767,2.1972 1.37507,2.67198 0.60365,5.92003 -1.84767,7.77982 -0.6469,0.49079 -1.21417,0.99287 -1.26063,1.11572 -0.0465,0.12285 0.34478,0.40272 0.86942,0.62192 1.07373,0.44864 1.87272,1.90952 1.57755,2.88442 -0.26495,0.87507 -1.15083,1.71985 -1.99887,1.9061 l -0.76052,0.16704 v 27.76023 27.76023 h 1.44219 c 4.26778,0 7.05742,1.92091 7.8349,5.39504 0.60073,2.68441 -0.91149,5.70241 -3.5705,7.12568 l -1.07638,0.57615 -42.201043,0.0596 c -40.86073,0.0577 -42.247112,0.0436 -43.651597,-0.44318 z m 23.757869,-13.98961 c 0.127847,-1.77684 -0.100216,-1.89867 -3.554293,-1.89867 h -3.010313 v -0.77461 c 0,-1.53727 0.567185,-4.95136 1.118243,-6.7311 0.596233,-1.92563 1.935644,-4.20601 3.75027,-6.38492 0.60596,-0.7276 1.246717,-1.65594 1.423908,-2.06297 0.24265,-0.5574 0.322162,-5.13961 0.322162,-18.56595 v -17.82591 l -0.760523,-0.16704 c -0.848027,-0.18625 -1.733902,-1.03103 -1.998859,-1.9061 -0.295177,-0.9749 0.503807,-2.43578 1.577549,-2.88442 0.524632,-0.2192 0.915872,-0.49907 0.869419,-0.62192 -0.04645,-0.12285 -0.613741,-0.62493 -1.260639,-1.11572 -3.351557,-2.54279 -3.351557,-7.43423 0,-9.97702 1.424709,-1.08091 1.513096,-1.2633 0.727723,-1.50174 -0.848305,-0.25754 -1.725631,-1.11292 -1.91489,-1.86699 -0.281639,-1.12213 0.503449,-2.47821 1.708864,-2.95171 l 1.076338,-0.4228 -0.147994,-4.12214 c -0.43714,-12.17597 -0.440325,-14.62824 -0.02016,-15.51368 0.544206,-1.14683 0.534731,-4.2877 -0.01709,-5.66685 -0.303051,-0.7574 -0.368448,-1.3847 -0.228118,-2.18817 0.108199,-0.6195 0.210082,-7.139024 0.226406,-14.487826 l 0.02969,-13.361458 -7.209896,-0.0704 -7.209896,-0.0704 v 27.745374 27.74537 l 1.063844,0.41789 c 1.192721,0.46851 1.976618,1.83023 1.696377,2.9468 -0.18926,0.75407 -1.066586,1.60945 -1.914891,1.86698 -0.785373,0.23844 -0.696986,0.42083 0.727724,1.50175 3.351556,2.54279 3.351556,7.43423 0,9.97702 -0.646899,0.49079 -1.214187,0.99287 -1.260639,1.11572 -0.04645,0.12285 0.344786,0.40272 0.869418,0.62192 1.073742,0.44864 1.872726,1.90951 1.577549,2.88442 -0.264957,0.87507 -1.150832,1.71985 -1.998858,1.9061 l -0.760524,0.16704 v 27.76448 27.76447 l 7.209896,-0.0704 7.209896,-0.0704 z m 53.231231,-26.4839 v -27.76023 l -0.76052,-0.16704 c -0.84804,-0.18625 -1.73392,-1.03103 -1.99888,-1.9061 -0.29516,-0.9749 0.50382,-2.43578 1.57756,-2.88442 0.52464,-0.2192 0.91588,-0.49907 0.86942,-0.62192 -0.0465,-0.12285 -0.61373,-0.62493 -1.26064,-1.11572 -3.35155,-2.54279 -3.35155,-7.43423 0,-9.97702 1.42471,-1.08091 1.5131,-1.2633 0.72771,-1.50174 -0.84828,-0.25754 -1.72561,-1.11292 -1.91487,-1.86699 -0.28024,-1.11657 0.50367,-2.47829 1.69638,-2.9468 l 1.06384,-0.41789 v -27.7425 -27.74249 l -24.407816,0.06752 -24.407813,0.06752 -0.06988,8.581999 c -0.04512,5.542076 0.02516,8.677042 0.198438,8.850312 0.367104,0.367104 0.370765,32.082509 0.0037,32.309349 -0.148651,0.0919 -0.264583,1.35639 -0.264583,2.8859 v 2.72238 l 1.063844,0.41789 c 1.192721,0.46851 1.976618,1.83023 1.696376,2.9468 -0.189259,0.75407 -1.066585,1.60945 -1.91489,1.86699 -0.785373,0.23844 -0.696986,0.42083 0.727724,1.50174 3.351556,2.54279 3.351556,7.43423 0,9.97702 -0.646899,0.49079 -1.214187,0.99287 -1.260639,1.11572 -0.04645,0.12285 0.344786,0.40272 0.869418,0.62192 1.073742,0.44864 1.872726,1.90952 1.577549,2.88442 -0.264957,0.87507 -1.150832,1.71985 -1.998859,1.9061 l -0.760523,0.16704 v 15.82158 c 0,12.56717 0.06996,15.87964 0.340108,16.10385 0.257358,0.21359 1.045941,-0.33099 3.241146,-2.23827 6.200376,-5.38713 9.234499,-8.92896 9.872036,-11.52397 0.195352,-0.79515 0.305043,-4.04585 0.305043,-9.03993 0,-6.00288 0.07614,-7.82392 0.330729,-7.9096 0.259588,-0.0874 0.254553,-0.20361 -0.02339,-0.54038 -0.227335,-0.27544 -0.291097,-0.71606 -0.17808,-1.23062 0.233807,-1.06452 0.73797,-1.36833 0.621189,-0.37432 -0.07247,0.61685 0.02146,0.77301 0.506335,0.84187 0.327422,0.0465 0.595313,0.24213 0.595313,0.43472 0,0.19259 0.183729,0.42067 0.408284,0.50684 0.335423,0.12871 0.352261,0.26136 0.09435,0.74326 -0.233524,0.43634 -0.236448,0.61242 -0.0114,0.68743 0.217281,0.0724 0.302525,2.16857 0.302525,7.43911 0,8.48155 0.09202,9.00405 2.081546,11.81947 1.851665,2.62032 3.934907,4.67107 10.10458,9.94694 2.99159,2.5582 6.07199,5.35087 6.84532,6.20594 2.05275,2.26968 3.91251,5.21779 4.50819,7.1464 0.49895,1.61542 1.06662,5.21879 1.06662,6.77059 v 0.73455 H 93.01437 c -15.348773,0 -20.263814,0.0761 -20.505209,0.3175 -0.334671,0.33467 -0.442315,2.37991 -0.14111,2.68111 0.09701,0.097 11.110293,0.17639 24.473958,0.17639 h 24.297571 v -27.76023 z m -17.13177,-25.67762 c -1.10125,-0.70116 -1.65365,-1.22486 -1.65365,-1.56774 0,-0.35194 -0.24065,-0.56772 -0.76052,-0.68191 -0.84803,-0.18625 -1.733905,-1.03103 -1.998862,-1.9061 -0.295177,-0.9749 0.503802,-2.43578 1.577552,-2.88442 0.52463,-0.2192 0.91587,-0.49907 0.86942,-0.62192 -0.0465,-0.12285 -0.61375,-0.62493 -1.26064,-1.11572 -0.67123,-0.50925 -1.464464,-1.45254 -1.847676,-2.19719 -1.375051,-2.67199 -0.603652,-5.92004 1.847676,-7.77983 1.43559,-1.08917 1.53033,-1.29572 0.69089,-1.50641 -0.76168,-0.19117 -1.62737,-1.06099 -1.877222,-1.88618 -0.313952,-1.03691 0.509942,-2.45723 1.695542,-2.92294 0.9798,-0.38488 1.06384,-0.49662 1.06384,-1.41445 0,-0.54811 0.0744,-1.19045 0.16534,-1.42743 0.18678,-0.48674 3.47219,-2.06608 3.83347,-1.84279 0.12899,0.0797 0.23452,1.07235 0.23452,2.20586 v 2.06092 l 1.06385,0.41789 c 1.19271,0.46851 1.97661,1.83023 1.69637,2.9468 -0.18926,0.75407 -1.06658,1.60945 -1.91489,1.86699 -0.78537,0.23844 -0.69698,0.42083 0.72773,1.50174 0.67122,0.50925 1.46447,1.45254 1.84766,2.1972 1.37507,2.67198 0.60365,5.92003 -1.84766,7.77982 -0.6469,0.49079 -1.21419,0.99287 -1.26064,1.11572 -0.0464,0.12285 0.34478,0.40272 0.86942,0.62192 1.07374,0.44864 1.87273,1.90952 1.57756,2.88442 -0.26363,0.87069 -1.14945,1.71954 -1.98622,1.90332 -0.70086,0.15394 -0.75281,0.25857 -0.82666,1.6648 -0.0569,1.0828 -0.1893,1.52002 -0.47568,1.57052 -0.21828,0.0385 -1.14102,-0.40382 -2.05052,-0.98289 z m -17.887515,-4.55851 c -0.257876,-0.96278 -0.196683,-4.97448 0.07588,-4.97448 0.1354,0 0.284229,0.25988 0.330729,0.57751 0.09892,0.67569 1.539756,1.23273 1.539756,0.59528 0,-0.20293 -0.302842,-0.44496 -0.672981,-0.53786 -0.771573,-0.19365 -0.741585,-0.55398 0.09217,-1.10757 0.543026,-0.36056 0.581076,-0.34482 0.584862,0.24194 0.0033,0.50361 0.05515,0.54918 0.262739,0.2307 0.17504,-0.26854 0.237895,0.54421 0.194384,2.51355 l -0.0643,2.91041 -1.090081,0.0797 c -0.946999,0.0692 -1.111488,-2.4e-4 -1.253159,-0.52916 z m 0.798677,-2.92395 c -0.0734,-0.18191 -0.133454,-0.0331 -0.133454,0.33072 0,0.36381 0.06006,0.51263 0.133454,0.33073 0.0734,-0.1819 0.0734,-0.47955 0,-0.66145 z m 1.412271,-2.97657 c 0,-0.35794 -0.314139,-0.51438 -0.859895,-0.4282 -0.462445,0.073 -0.141754,-0.38992 0.465084,-0.67138 0.633598,-0.29387 0.659395,-0.27059 0.659395,0.59531 0,0.49563 -0.05953,0.90115 -0.132292,0.90115 -0.07276,0 -0.132292,-0.1786 -0.132292,-0.39688 z m -2.116666,-0.14059 c 0,-0.14096 0.178593,-0.25628 0.396875,-0.25628 0.218281,0 0.396875,0.0468 0.396875,0.10398 0,0.0572 -0.178594,0.17252 -0.396875,0.25628 -0.218282,0.0838 -0.396875,0.037 -0.396875,-0.10398 z m 2.188728,-5.01878 c 0,-0.65485 0.0516,-0.92274 0.114663,-0.59531 0.06307,0.32742 0.06307,0.8632 0,1.19062 -0.06306,0.32742 -0.114663,0.0595 -0.114663,-0.59531 z m 10.817567,-36.51457 c -0.340863,-0.14495 -0.708105,-0.20893 -0.816097,-0.14219 -0.107992,0.0667 -1.138793,-0.21805 -2.29067,-0.63286 -3.326252,-1.197865 -3.929451,-1.445541 -4.619715,-1.896867 -0.357283,-0.233612 -0.917496,-0.509461 -1.244917,-0.613003 -0.327422,-0.103539 -0.595313,-0.281212 -0.595313,-0.394824 0,-0.113615 -0.479637,-0.422857 -1.065855,-0.687205 -0.586222,-0.264351 -1.026737,-0.609854 -0.978922,-0.767789 0.143661,-0.474523 4.114615,-2.985389 6.939569,-4.387943 3.56008,-1.767536 5.448535,-2.089446 8.863538,-1.510895 2.93667,0.497514 5.6723,1.561753 8.07488,3.141345 1.37691,0.905277 1.71471,1.262097 1.71471,1.8113 0,1.974255 -6.16381,5.630711 -10.05417,5.964281 -0.3638,0.0312 -1.25677,0.12949 -1.98437,0.21845 -0.72761,0.089 -1.601808,0.0431 -1.942668,-0.1018 z"
         id="path120" />
      <path
         style="fill:#c64c74;stroke-width:0.264583"
         d="m 44.15046,220.23656 c -2.762866,-0.95762 -4.855721,-4.23404 -4.374631,-6.84861 0.687882,-3.73843 3.4887,-5.86467 7.725291,-5.86467 h 1.671769 v -27.76023 -27.76023 l -0.760523,-0.16704 c -0.848027,-0.18625 -1.733902,-1.03103 -1.998858,-1.9061 -0.295178,-0.9749 0.503806,-2.43578 1.577549,-2.88442 0.524631,-0.2192 0.915871,-0.49907 0.869418,-0.62192 -0.04645,-0.12285 -0.613741,-0.62493 -1.260639,-1.11572 -3.351557,-2.54279 -3.351557,-7.43423 0,-9.97702 1.42471,-1.08091 1.513096,-1.2633 0.727723,-1.50174 -0.848305,-0.25754 -1.725631,-1.11292 -1.91489,-1.86699 -0.280242,-1.11657 0.503655,-2.47829 1.696376,-2.9468 l 1.063844,-0.41789 V 100.85606 73.114944 H 47.50112 c -2.565469,0 -4.328996,-0.635682 -5.776796,-2.082305 -2.711226,-2.709021 -2.603823,-6.778471 0.24666,-9.345991 2.129901,-1.918472 -0.813432,-1.80087 45.072322,-1.80087 28.793864,0 41.619974,0.08708 42.561274,0.288946 2.47838,0.531521 4.4735,2.550636 5.0454,5.106096 0.60192,2.689696 -0.93893,5.756132 -3.56579,7.096257 -0.74589,0.380524 -1.77689,0.586936 -3.39149,0.678995 l -2.31981,0.13227 v 27.704418 27.70442 l 1.06384,0.41789 c 1.19271,0.46851 1.97662,1.83023 1.69637,2.9468 -0.18925,0.75407 -1.06659,1.60945 -1.91487,1.86699 -0.78538,0.23844 -0.69699,0.42083 0.72771,1.50174 0.67123,0.50925 1.46447,1.45254 1.84767,2.1972 1.37507,2.67198 0.60365,5.92003 -1.84767,7.77982 -0.6469,0.49079 -1.21417,0.99287 -1.26063,1.11572 -0.0465,0.12285 0.34478,0.40272 0.86942,0.62192 1.07373,0.44864 1.87272,1.90952 1.57755,2.88442 -0.26495,0.87507 -1.15083,1.71985 -1.99887,1.9061 l -0.76052,0.16704 v 27.76023 27.76023 h 1.44219 c 4.26778,0 7.05742,1.92091 7.8349,5.39504 0.60073,2.68441 -0.91149,5.70241 -3.5705,7.12568 l -1.07638,0.57615 -42.201043,0.0596 c -40.86073,0.0577 -42.247112,0.0436 -43.651597,-0.44318 z m 23.726982,-40.53258 0.145243,-27.68702 -0.792713,-0.17411 c -0.876694,-0.19255 -1.762805,-1.02723 -2.031048,-1.91317 -0.295177,-0.9749 0.503807,-2.43578 1.577549,-2.88442 0.524632,-0.2192 0.915872,-0.49907 0.869419,-0.62192 -0.04645,-0.12285 -0.613741,-0.62493 -1.260639,-1.11572 -3.351557,-2.54279 -3.351557,-7.43423 0,-9.97702 1.424709,-1.08091 1.513096,-1.2633 0.727723,-1.50174 -0.848305,-0.25754 -1.725631,-1.11292 -1.91489,-1.86699 -0.280292,-1.11676 0.50365,-2.47829 1.696812,-2.94698 l 1.064282,-0.41806 -0.01992,-9.94771 c -0.01095,-5.47125 0.0033,-11.07881 0.03162,-12.46126 0.02835,-1.38245 0.0074,-9.359634 -0.04666,-17.727082 l -0.0982,-15.213542 -7.209896,-0.0704 -7.209896,-0.0704 v 27.745364 27.74537 l 1.063844,0.41789 c 1.192721,0.46851 1.976618,1.83023 1.696377,2.9468 -0.18926,0.75407 -1.066586,1.60945 -1.914891,1.86699 -0.785373,0.23844 -0.696986,0.42083 0.727724,1.50174 3.351556,2.54279 3.351556,7.43423 0,9.97702 -0.646899,0.49079 -1.214187,0.99287 -1.260639,1.11572 -0.04645,0.12285 0.344786,0.40272 0.869418,0.62192 1.073742,0.44864 1.872726,1.90952 1.577549,2.88442 -0.264957,0.87507 -1.150832,1.71985 -1.998858,1.9061 l -0.760524,0.16704 v 27.76448 27.76448 l 7.162988,-0.0704 7.16299,-0.0704 z m 53.262118,0.0591 v -27.76023 l -0.76052,-0.16704 c -0.84804,-0.18625 -1.73392,-1.03103 -1.99888,-1.9061 -0.29516,-0.9749 0.50382,-2.43578 1.57756,-2.88442 0.52464,-0.2192 0.91588,-0.49907 0.86942,-0.62192 -0.0465,-0.12285 -0.61373,-0.62493 -1.26064,-1.11572 -3.35155,-2.54279 -3.35155,-7.43423 0,-9.97702 1.42471,-1.08091 1.5131,-1.2633 0.72771,-1.50174 -0.84828,-0.25754 -1.72561,-1.11292 -1.91487,-1.86699 -0.28024,-1.11657 0.50367,-2.47829 1.69638,-2.9468 l 1.06384,-0.41789 v -27.7425 -27.74249 l -24.407816,0.06752 -24.407813,0.06752 v 27.70072 27.70073 l 0.997699,0.39213 c 1.125614,0.44241 1.902812,1.835 1.63023,2.92105 -0.189259,0.75407 -1.066585,1.60945 -1.91489,1.86699 -0.785373,0.23844 -0.696986,0.42083 0.727724,1.50174 3.351556,2.54279 3.351556,7.43423 0,9.97702 -0.646899,0.49079 -1.214187,0.99287 -1.260639,1.11572 -0.04645,0.12285 0.344786,0.40272 0.869418,0.62192 1.073742,0.44864 1.872726,1.90952 1.577549,2.88442 -0.267878,0.88473 -1.153957,1.72053 -2.027407,1.91237 l -0.78907,0.17331 0.159399,27.68781 c 0.08767,15.2283 0.160046,27.71758 0.16084,27.75396 7.91e-4,0.0364 10.955189,0.0661 24.343106,0.0661 h 24.34167 z m -17.13177,-25.67762 c -1.10125,-0.70116 -1.65365,-1.22486 -1.65365,-1.56774 0,-0.35194 -0.24065,-0.56772 -0.76052,-0.68191 -0.84803,-0.18625 -1.733905,-1.03103 -1.998862,-1.9061 -0.295177,-0.9749 0.503802,-2.43578 1.577552,-2.88442 0.52463,-0.2192 0.91587,-0.49907 0.86942,-0.62192 -0.0465,-0.12285 -0.61375,-0.62493 -1.26064,-1.11572 -0.67123,-0.50925 -1.464464,-1.45254 -1.847676,-2.19719 -1.375051,-2.67199 -0.603652,-5.92004 1.847676,-7.77983 1.43559,-1.08917 1.53033,-1.29572 0.69089,-1.50641 -0.76168,-0.19117 -1.62737,-1.06099 -1.877222,-1.88618 -0.313952,-1.03691 0.509942,-2.45723 1.695542,-2.92294 0.9798,-0.38488 1.06384,-0.49662 1.06384,-1.41445 0,-0.54811 0.0744,-1.19045 0.16534,-1.42743 0.18678,-0.48674 3.47219,-2.06608 3.83347,-1.84279 0.12899,0.0797 0.23452,1.07235 0.23452,2.20586 v 2.06092 l 1.06385,0.41789 c 1.19271,0.46851 1.97661,1.83023 1.69637,2.9468 -0.18926,0.75407 -1.06658,1.60945 -1.91489,1.86699 -0.78537,0.23844 -0.69698,0.42083 0.72773,1.50174 0.67122,0.50925 1.46447,1.45254 1.84766,2.1972 1.37507,2.67198 0.60365,5.92003 -1.84766,7.77982 -0.6469,0.49079 -1.21419,0.99287 -1.26064,1.11572 -0.0464,0.12285 0.34478,0.40272 0.86942,0.62192 1.07374,0.44864 1.87273,1.90952 1.57756,2.88442 -0.26363,0.87069 -1.14945,1.71954 -1.98622,1.90332 -0.70086,0.15394 -0.75281,0.25857 -0.82666,1.6648 -0.0569,1.0828 -0.1893,1.52002 -0.47568,1.57052 -0.21828,0.0385 -1.14102,-0.40382 -2.05052,-0.98289 z m -4.613475,-52.64761 c -0.390975,-0.12228 -0.764119,-0.16907 -0.829207,-0.10398 -0.391342,0.39134 -7.278285,-2.526256 -9.209947,-3.901721 -0.389813,-0.277572 -0.839198,-0.504675 -0.998636,-0.504675 -1.692481,0 5.251236,-4.321773 8.896038,-5.536898 2.155114,-0.718481 5.125127,-0.723672 7.903527,-0.01381 2.3431,0.598643 5.84794,2.252564 7.25222,3.422295 l 0.92604,0.771369 -0.92604,0.972569 c -2.47002,2.594104 -5.93659,4.377121 -9.26042,4.763041 -0.21828,0.0254 -0.99219,0.1154 -1.71979,0.20011 -0.72761,0.0847 -1.642807,0.054 -2.033785,-0.0683 z"
         id="path118" />
      <path
         style="fill:#615fa6;stroke-width:0.264583"
         d="m 44.15046,220.23656 c -2.762866,-0.95762 -4.855721,-4.23404 -4.374631,-6.84861 0.687882,-3.73843 3.4887,-5.86467 7.725291,-5.86467 h 1.671769 v -27.76023 -27.76023 l -0.760523,-0.16704 c -0.848027,-0.18625 -1.733902,-1.03103 -1.998858,-1.9061 -0.295178,-0.9749 0.503806,-2.43578 1.577549,-2.88442 0.524631,-0.2192 0.915871,-0.49907 0.869418,-0.62192 -0.04645,-0.12285 -0.613741,-0.62493 -1.260639,-1.11572 -3.351557,-2.54279 -3.351557,-7.43423 0,-9.97702 1.42471,-1.08091 1.513096,-1.2633 0.727723,-1.50174 -0.848305,-0.25754 -1.725631,-1.11292 -1.91489,-1.86699 -0.280242,-1.11657 0.503655,-2.47829 1.696376,-2.9468 l 1.063844,-0.41789 V 100.85606 73.114944 H 47.50112 c -2.565469,0 -4.328996,-0.635682 -5.776796,-2.082305 -2.711226,-2.709021 -2.603823,-6.778471 0.24666,-9.345991 2.129901,-1.918472 -0.813432,-1.80087 45.072322,-1.80087 28.793864,0 41.619974,0.08708 42.561274,0.288946 2.47838,0.531521 4.4735,2.550636 5.0454,5.106096 0.60192,2.689696 -0.93893,5.756132 -3.56579,7.096257 -0.74589,0.380524 -1.77689,0.586936 -3.39149,0.678995 l -2.31981,0.13227 v 27.704418 27.70442 l 1.06384,0.41789 c 1.19271,0.46851 1.97662,1.83023 1.69637,2.9468 -0.18925,0.75407 -1.06659,1.60945 -1.91487,1.86699 -0.78538,0.23844 -0.69699,0.42083 0.72771,1.50174 0.67123,0.50925 1.46447,1.45254 1.84767,2.1972 1.37507,2.67198 0.60365,5.92003 -1.84767,7.77982 -0.6469,0.49079 -1.21417,0.99287 -1.26063,1.11572 -0.0465,0.12285 0.34478,0.40272 0.86942,0.62192 1.07373,0.44864 1.87272,1.90952 1.57755,2.88442 -0.26495,0.87507 -1.15083,1.71985 -1.99887,1.9061 l -0.76052,0.16704 v 27.76023 27.76023 h 1.44219 c 4.26778,0 7.05742,1.92091 7.8349,5.39504 0.60073,2.68441 -0.91149,5.70241 -3.5705,7.12568 l -1.07638,0.57615 -42.201043,0.0596 c -40.86073,0.0577 -42.247112,0.0436 -43.651597,-0.44318 z m 23.742918,-40.53939 0.06736,-27.69381 -0.761738,-0.16731 c -0.849109,-0.18649 -1.734995,-1.03088 -2.000076,-1.90637 -0.295177,-0.9749 0.503807,-2.43578 1.577549,-2.88442 0.524632,-0.2192 0.915872,-0.49907 0.869419,-0.62192 -0.04645,-0.12285 -0.613741,-0.62493 -1.260639,-1.11572 -3.351557,-2.54279 -3.351557,-7.43423 0,-9.97702 1.424709,-1.08091 1.513096,-1.2633 0.727723,-1.50174 -0.848305,-0.25754 -1.725631,-1.11292 -1.91489,-1.86699 -0.277003,-1.10366 0.504094,-2.47847 1.667878,-2.93561 l 1.035346,-0.4067 0.09464,-11.67887 C 68.048,110.51731 68.03106,98.058538 67.9583,89.254528 l -0.132291,-16.007292 -7.209896,-0.0704 -7.209896,-0.0704 v 27.745364 27.74537 l 1.063844,0.41789 c 1.192721,0.46851 1.976618,1.83023 1.696377,2.9468 -0.18926,0.75407 -1.066586,1.60945 -1.914891,1.86699 -0.785373,0.23844 -0.696986,0.42083 0.727724,1.50174 3.351556,2.54279 3.351556,7.43423 0,9.97702 -0.646899,0.49079 -1.214187,0.99287 -1.260639,1.11572 -0.04645,0.12285 0.344786,0.40272 0.869418,0.62192 1.073742,0.44864 1.872726,1.90952 1.577549,2.88442 -0.264957,0.87507 -1.150832,1.71985 -1.998858,1.9061 l -0.760524,0.16704 v 27.76448 27.76448 l 7.209896,-0.0704 7.209896,-0.0704 z m 53.246182,0.0659 v -27.76023 l -0.76052,-0.16704 c -0.84804,-0.18625 -1.73392,-1.03103 -1.99888,-1.9061 -0.29516,-0.9749 0.50382,-2.43578 1.57756,-2.88442 0.52464,-0.2192 0.91588,-0.49907 0.86942,-0.62192 -0.0465,-0.12285 -0.61373,-0.62493 -1.26064,-1.11572 -3.35155,-2.54279 -3.35155,-7.43423 0,-9.97702 1.42471,-1.08091 1.5131,-1.2633 0.72771,-1.50174 -0.84828,-0.25754 -1.72561,-1.11292 -1.91487,-1.86699 -0.28024,-1.11657 0.50367,-2.47829 1.69638,-2.9468 l 1.06384,-0.41789 V 100.8547 73.11221 l -24.407816,0.06752 -24.407813,0.06752 -0.06736,27.67449 -0.06736,27.67449 1.065059,0.41837 c 1.19395,0.469 1.977966,1.83017 1.697587,2.94728 -0.189259,0.75407 -1.066585,1.60945 -1.91489,1.86699 -0.785373,0.23844 -0.696986,0.42083 0.727724,1.50174 3.351556,2.54279 3.351556,7.43423 0,9.97702 -0.646899,0.49079 -1.214187,0.99287 -1.260639,1.11572 -0.04645,0.12285 0.344786,0.40272 0.869418,0.62192 1.073742,0.44864 1.872726,1.90952 1.577549,2.88442 -0.264957,0.87507 -1.150832,1.71985 -1.998859,1.9061 l -0.760523,0.16704 v 27.58384 c 0,15.17111 0.07937,27.66322 0.17639,27.76023 0.09701,0.097 11.110293,0.17639 24.473958,0.17639 h 24.297575 z m -17.13177,-25.67762 c -1.10125,-0.70116 -1.65365,-1.22486 -1.65365,-1.56774 0,-0.35194 -0.24065,-0.56772 -0.76052,-0.68191 -0.84803,-0.18625 -1.733905,-1.03103 -1.998862,-1.9061 -0.295177,-0.9749 0.503802,-2.43578 1.577552,-2.88442 0.52463,-0.2192 0.91587,-0.49907 0.86942,-0.62192 -0.0465,-0.12285 -0.61375,-0.62493 -1.26064,-1.11572 -0.67123,-0.50925 -1.464464,-1.45254 -1.847676,-2.19719 -1.375051,-2.67199 -0.603652,-5.92004 1.847676,-7.77983 1.43559,-1.08917 1.53033,-1.29572 0.69089,-1.50641 -0.76168,-0.19117 -1.62737,-1.06099 -1.877222,-1.88618 -0.313952,-1.03691 0.509942,-2.45723 1.695542,-2.92294 0.9798,-0.38488 1.06384,-0.49662 1.06384,-1.41445 0,-0.54811 0.0744,-1.19045 0.16534,-1.42743 0.18678,-0.48674 3.47219,-2.06608 3.83347,-1.84279 0.12899,0.0797 0.23452,1.07235 0.23452,2.20586 v 2.06092 l 1.06385,0.41789 c 1.19271,0.46851 1.97661,1.83023 1.69637,2.9468 -0.18926,0.75407 -1.06658,1.60945 -1.91489,1.86699 -0.78537,0.23844 -0.69698,0.42083 0.72773,1.50174 0.67122,0.50925 1.46447,1.45254 1.84766,2.1972 1.37507,2.67198 0.60365,5.92003 -1.84766,7.77982 -0.6469,0.49079 -1.21419,0.99287 -1.26064,1.11572 -0.0464,0.12285 0.34478,0.40272 0.86942,0.62192 1.07374,0.44864 1.87273,1.90952 1.57756,2.88442 -0.26363,0.87069 -1.14945,1.71954 -1.98622,1.90332 -0.70086,0.15394 -0.75281,0.25857 -0.82666,1.6648 -0.0569,1.0828 -0.1893,1.52002 -0.47568,1.57052 -0.21828,0.0385 -1.14102,-0.40382 -2.05052,-0.98289 z"
         id="path116" />
      <path
         style="fill:#393992;stroke-width:0.264583"
         d="m 44.807772,220.1872 c -4.655007,-1.08917 -6.24374,-7.14805 -2.744795,-10.4677 1.28687,-1.22093 2.56286,-1.66643 4.78631,-1.67111 1.059701,-0.002 2.059826,-0.0915 2.2225,-0.19843 0.213587,-0.14038 0.328028,-7.84033 0.411853,-27.71106 0.06384,-15.13416 0.07416,-27.7078 0.02291,-27.94141 -0.05123,-0.23361 -0.562047,-0.56523 -1.135139,-0.73693 -2.242871,-0.67198 -2.149216,-3.50677 0.140824,-4.26255 1.197055,-0.39507 1.170705,-0.89646 -0.0889,-1.69162 -2.175399,-1.37326 -3.087547,-3.17065 -2.903104,-5.72056 0.137946,-1.90705 1.08543,-3.44769 2.736081,-4.44894 1.471588,-0.89264 1.509606,-1.45019 0.127129,-1.86439 -1.171935,-0.35113 -1.591805,-0.91661 -1.591805,-2.14385 0,-0.87779 0.990264,-2.12204 1.688868,-2.12204 0.2145,0 0.577101,-0.1871 0.805775,-0.41577 0.372626,-0.37263 0.415398,-3.23517 0.412163,-27.58282 -0.0021,-14.941866 -0.07123,-27.418965 -0.153877,-27.726879 -0.134567,-0.501367 -0.389826,-0.573781 -2.443784,-0.693285 -2.746396,-0.159793 -3.892757,-0.598363 -5.267928,-2.015384 -2.317851,-2.388389 -2.212335,-6.373173 0.230121,-8.690473 1.890829,-1.793938 -1.550231,-1.667055 45.209913,-1.667055 46.760163,0 43.319093,-0.126883 45.209913,1.667055 1.96842,1.867543 2.45232,4.765379 1.21153,7.255291 -1.18539,2.378786 -3.41098,3.513071 -6.89303,3.513071 -1.46804,0 -1.64725,0.05957 -1.79081,0.595312 -0.0878,0.327422 -0.16116,12.820481 -0.16314,27.762347 -0.003,24.34765 0.0395,27.21019 0.41214,27.58282 0.22868,0.22867 0.59129,0.41577 0.80579,0.41577 0.6986,0 1.68886,1.24425 1.68886,2.12204 0,1.22724 -0.41987,1.79272 -1.59181,2.14385 -1.38248,0.4142 -1.34446,0.97175 0.12713,1.86439 1.65066,1.00125 2.59813,2.54189 2.73608,4.44894 0.18444,2.54991 -0.72771,4.3473 -2.90311,5.72056 -1.2596,0.79516 -1.28596,1.29655 -0.0889,1.69162 1.09754,0.36222 1.72061,1.15641 1.72061,2.1932 0,1.15585 -0.43902,1.72757 -1.59181,2.07295 -0.61775,0.18509 -1.06987,0.49011 -1.09231,0.73694 -0.0212,0.23162 -0.007,12.80364 0.0311,27.9378 0.0507,20.13396 0.14973,27.56882 0.36902,27.71106 0.16481,0.10691 1.16671,0.19621 2.22639,0.19843 2.22345,0.005 3.49946,0.45018 4.78631,1.67111 2.65327,2.51731 2.44168,7.15596 -0.42622,9.34341 -1.9405,1.48009 -0.23971,1.42713 -44.907499,1.39837 -24.59063,-0.0158 -41.711214,-0.12665 -42.341312,-0.27408 z m 22.958939,-12.46548 c 0.403341,-0.30407 0.440545,-2.53842 0.461452,-27.71511 0.01252,-15.06141 0.01643,-27.57389 0.0087,-27.80551 -0.0085,-0.25643 -0.426257,-0.54466 -1.068022,-0.73694 -1.152792,-0.34538 -1.591816,-0.9171 -1.591816,-2.07295 0,-1.03679 0.62306,-1.83098 1.720612,-2.1932 1.197055,-0.39507 1.170705,-0.89646 -0.0889,-1.69162 -2.175399,-1.37326 -3.087547,-3.17065 -2.903103,-5.72056 0.137945,-1.90705 1.085429,-3.44769 2.73608,-4.44894 1.471588,-0.89264 1.509606,-1.45019 0.127129,-1.86439 -1.171948,-0.35113 -1.591818,-0.91661 -1.591818,-2.14385 0,-0.87779 0.990264,-2.12204 1.688868,-2.12204 0.2145,0 0.581051,-0.19105 0.814554,-0.42455 0.380531,-0.38053 0.406368,-1.40247 0.249176,-9.85573 l -0.175376,-9.43118 0.834035,-1.03609 c 1.410798,-1.75258 1.415283,-2.7749 0.01987,-4.53078 l -0.81415,-1.02448 0.187407,-14.438911 C 68.523644,77.508657 68.492968,73.884197 68.254264,73.43817 67.940788,72.852417 67.91392,72.850361 60.571523,72.850361 h -7.368167 l -0.159536,0.595312 c -0.08775,0.327422 -0.161165,12.820481 -0.163152,27.762347 -0.0032,24.34765 0.03954,27.21019 0.412162,27.58282 0.228674,0.22867 0.591275,0.41577 0.805776,0.41577 0.698603,0 1.688867,1.24425 1.688867,2.12204 0,1.22724 -0.41987,1.79272 -1.591818,2.14385 -1.382477,0.4142 -1.344459,0.97175 0.12713,1.86439 1.65065,1.00125 2.598134,2.54189 2.73608,4.44894 0.184443,2.54991 -0.727705,4.3473 -2.903104,5.72056 -1.259605,0.79516 -1.285954,1.29655 -0.0889,1.69162 1.097553,0.36222 1.720612,1.15641 1.720612,2.1932 0,1.15585 -0.439023,1.72757 -1.591818,2.07295 -0.617757,0.18509 -1.069861,0.49011 -1.092298,0.73694 -0.02106,0.23162 -0.0071,12.80364 0.03105,27.9378 0.05073,20.13396 0.149738,27.56882 0.369012,27.71106 0.164819,0.10691 3.342777,0.19621 7.062126,0.19843 5.004943,0.003 6.876468,-0.0819 7.201162,-0.32667 z m 53.271749,0.12824 c 0.21357,-0.14038 0.32803,-7.84033 0.41185,-27.71106 0.0638,-15.13416 0.0742,-27.7078 0.023,-27.94141 -0.0512,-0.23361 -0.56203,-0.56523 -1.13512,-0.73693 -2.24287,-0.67198 -2.14923,-3.50677 0.14081,-4.26255 1.19706,-0.39507 1.17071,-0.89646 -0.0889,-1.69162 -2.1754,-1.37326 -3.08755,-3.17065 -2.90311,-5.72056 0.13795,-1.90705 1.08543,-3.44769 2.73608,-4.44894 1.47159,-0.89264 1.50961,-1.45019 0.12714,-1.86439 -1.17195,-0.35113 -1.59182,-0.91661 -1.59182,-2.14385 0,-0.87779 0.99026,-2.12204 1.68886,-2.12204 0.2145,0 0.57711,-0.1871 0.80579,-0.41577 0.37262,-0.37263 0.4154,-3.23517 0.41214,-27.58282 -0.003,-14.941866 -0.0754,-27.434925 -0.16314,-27.762347 L 121.3425,72.850361 H 96.776446 c -23.126423,0 -24.580459,0.02714 -24.811406,0.463021 -0.180276,0.340254 -0.207235,38.062728 -0.0396,55.409688 0.0011,0.0979 0.418069,0.31533 0.926942,0.48327 1.097552,0.36223 1.720612,1.15642 1.720612,2.1932 0,1.15585 -0.439023,1.72757 -1.591818,2.07296 -1.382477,0.4142 -1.344459,0.97175 0.127129,1.86439 1.650651,1.00125 2.598135,2.54189 2.73608,4.44894 0.184444,2.54991 -0.727704,4.3473 -2.903103,5.72056 -1.259605,0.79516 -1.285955,1.29655 -0.0889,1.69162 1.097552,0.36222 1.720612,1.15641 1.720612,2.1932 0,1.15585 -0.439023,1.72757 -1.591818,2.07295 -0.651791,0.19529 -1.055394,0.47651 -1.057627,0.73694 -0.0021,0.23162 -0.0013,12.7441 0.0013,27.80551 0.0047,25.37229 0.0378,27.40868 0.451056,27.71511 0.34921,0.25893 5.647209,0.32985 24.4064,0.32667 13.178205,-0.002 24.093455,-0.0915 24.256155,-0.19843 z m -16.63415,-53.94033 c -0.9206,-0.56474 -1.58159,-1.17208 -1.6733,-1.53747 -0.10493,-0.41811 -0.46991,-0.69935 -1.18595,-0.91388 -2.235824,-0.66987 -2.137002,-3.50601 0.14844,-4.26027 1.19706,-0.39507 1.17071,-0.89646 -0.0889,-1.69162 -2.175397,-1.37326 -3.087545,-3.17065 -2.903102,-5.72056 0.137946,-1.90705 1.08543,-3.44769 2.736082,-4.44894 1.47159,-0.89264 1.50961,-1.45019 0.12713,-1.86439 -1.17195,-0.35113 -1.59182,-0.91661 -1.59182,-2.14385 0,-0.87779 0.99026,-2.12204 1.68887,-2.12204 0.72028,0 1.22155,-0.79943 1.22155,-1.94816 0,-1.09111 0.0334,-1.13297 1.46107,-1.83318 0.80359,-0.39412 1.51796,-0.71658 1.5875,-0.71658 0.0695,0 0.12643,0.82494 0.12643,1.83319 0,1.87987 0.35979,2.66473 1.22155,2.66473 0.6986,0 1.68886,1.24425 1.68886,2.12204 0,1.22724 -0.41986,1.79272 -1.59181,2.14385 -1.38248,0.4142 -1.34446,0.97175 0.12713,1.86439 1.65066,1.00125 2.59813,2.54189 2.73609,4.44894 0.18444,2.54991 -0.72771,4.3473 -2.90312,5.72056 -1.2596,0.79516 -1.28595,1.29655 -0.0889,1.69162 1.09755,0.36222 1.72061,1.15641 1.72061,2.1932 0,1.15485 -0.43881,1.7275 -1.58744,2.07164 -1.09006,0.32659 -1.17166,0.48367 -1.3854,2.66671 l -0.0699,0.71358 z"
         id="path114" />
    </g>
  </g>
</svg>
